<svg width="480" height="480" viewBox="0 0 480 480" fill="none" xmlns="http://www.w3.org/2000/svg">
<path fill-rule="evenodd" clip-rule="evenodd" d="M190 215C190 187.386 212.386 165 240 165C267.614 165 290 187.386 290 215C290 242.614 267.614 265 240 265C212.386 265 190 242.614 190 215Z" fill="white"/>
<path fill-rule="evenodd" clip-rule="evenodd" d="M240 130C179.249 130 130 179.249 130 240C130 300.751 179.249 350 240 350C300.751 350 350 300.751 350 240C350 179.249 300.751 130 240 130ZM150 240C150 190.294 190.294 150 240 150C289.706 150 330 190.294 330 240C330 262.211 321.954 282.543 308.618 298.24C299.457 287.114 285.564 280 270 280H210C194.437 280 180.544 287.114 171.382 298.241C158.046 282.543 150 262.211 150 240Z" fill="white"/>
<mask id="mask0_203_82" style="mask-type:alpha" maskUnits="userSpaceOnUse" x="0" y="0" width="480" height="480">
<path d="M248.058 23.7009C242.741 22.6075 237.258 22.6075 231.942 23.7009C225.796 24.9648 220.303 28.0414 215.936 30.4873L214.746 31.1522L185.287 47.5185C175.631 52.8828 172.152 65.0589 177.516 74.7146C182.881 84.3702 195.057 87.8491 204.712 82.4848L234.172 66.1185C237.203 64.4347 238.75 63.5839 239.904 63.0272L240 62.9815L240.095 63.0272C241.249 63.5839 242.796 64.4347 245.827 66.1185L275.287 82.4848C284.942 87.8491 297.118 84.3702 302.483 74.7145C307.847 65.0589 304.368 52.8828 294.712 47.5185L265.253 31.1522L264.063 30.4872C259.696 28.0414 254.203 24.9648 248.058 23.7009Z" fill="black"/>
<path d="M384.712 97.5185C375.057 92.1543 362.881 95.6332 357.516 105.289C352.152 114.945 355.631 127.121 365.287 132.485L378.815 140.001L365.288 147.516C355.632 152.88 352.153 165.056 357.518 174.712C362.882 184.367 375.058 187.846 384.714 182.482L400 173.99V190.002C400 201.047 408.954 210.002 420 210.002C431.045 210.002 440 201.047 440 190.002V158.831L440.003 157.388C440.016 153.732 440.032 149.425 439.354 145.044C440.607 140.242 440.085 134.968 437.484 130.286C434.709 125.292 430.113 121.95 424.985 120.63C421.487 117.911 417.716 115.835 414.516 114.072L413.253 113.374L384.712 97.5185Z" fill="black"/>
<path d="M114.712 132.485C124.368 127.121 127.847 114.945 122.483 105.289C117.118 95.6332 104.942 92.1543 95.2867 97.5186L66.7461 113.374L65.4833 114.072C62.2827 115.835 58.5117 117.912 55.013 120.631C49.8867 121.952 45.2914 125.293 42.5176 130.286C39.9177 134.966 39.3951 140.238 40.6462 145.039C39.967 149.422 39.9827 153.731 39.996 157.388L39.9996 158.831V190.002C39.9996 201.047 48.9539 210.002 59.9996 210.002C71.0453 210.002 79.9996 201.047 79.9996 190.002V173.988L95.2879 182.482C104.944 187.846 117.12 184.367 122.484 174.712C127.848 165.056 124.369 152.88 114.714 147.516L101.185 140L114.712 132.485Z" fill="black"/>
<path d="M79.9996 290.002C79.9996 278.956 71.0453 270.002 59.9996 270.002C48.9539 270.002 39.9996 278.956 39.9996 290.002V321.173L39.996 322.615C39.9768 327.893 39.9526 334.528 42.019 340.782C43.8055 346.19 46.7259 351.153 50.5849 355.34C55.0482 360.184 60.8601 363.385 65.4827 365.931L66.7461 366.629L95.2867 382.485C104.942 387.849 117.118 384.37 122.483 374.715C127.847 365.059 124.368 352.883 114.712 347.519L86.1719 331.663C82.9728 329.885 81.3395 328.969 80.1936 328.238L80.0968 328.176L80.0896 328.062C80.0079 326.705 79.9996 324.832 79.9996 321.173V290.002Z" fill="black"/>
<path d="M440 290.002C440 278.956 431.045 270.002 420 270.002C408.954 270.002 400 278.956 400 290.002V321.173C400 324.832 399.991 326.705 399.91 328.062L399.902 328.176L399.806 328.238C398.66 328.969 397.026 329.885 393.827 331.663L365.287 347.519C355.631 352.883 352.152 365.059 357.516 374.715C362.881 384.37 375.057 387.849 384.712 382.485L413.253 366.629L414.516 365.932C419.138 363.385 424.951 360.184 429.414 355.34C433.273 351.153 436.194 346.19 437.98 340.782C440.047 334.528 440.022 327.893 440.003 322.615L440 321.173V290.002Z" fill="black"/>
<path d="M204.712 397.519C195.057 392.154 182.881 395.633 177.516 405.289C172.152 414.944 175.631 427.121 185.287 432.485L214.746 448.851L215.936 449.516C218.944 451.201 222.486 453.184 226.407 454.669C229.975 457.977 234.752 459.999 240.001 459.999C245.25 459.999 250.027 457.976 253.596 454.668C257.516 453.183 261.056 451.2 264.063 449.516L265.253 448.851L294.712 432.485C304.368 427.121 307.847 414.944 302.483 405.289C297.118 395.633 284.942 392.154 275.287 397.519L260.001 406.011V389.999C260.001 378.953 251.046 369.999 240.001 369.999C228.955 369.999 220.001 378.953 220.001 389.999V406.012L204.712 397.519Z" fill="black"/>
<path d="M204.714 197.516C195.058 192.151 182.882 195.63 177.518 205.286C172.153 214.942 175.632 227.118 185.288 232.482L220.001 251.767V289.999C220.001 301.044 228.955 309.999 240.001 309.999C251.046 309.999 260.001 301.044 260.001 289.999V251.767L294.714 232.482C304.369 227.118 307.848 214.942 302.484 205.286C297.12 195.63 284.944 192.151 275.288 197.516L240.001 217.12L204.714 197.516Z" fill="black"/>
</mask>
<g mask="url(#mask0_203_82)">
<rect x="165" width="150" height="120" fill="white"/>
<rect x="330" width="150" height="480" fill="white"/>
<rect width="150" height="480" fill="white"/>
<rect x="165" y="360" width="150" height="120" fill="white"/>
</g>
</svg>
